<svg id="Layer_1" data-name="Layer 1" xmlns="http://www.w3.org/2000/svg" viewBox="0 0 137.61 24.32"><defs><style>.cls-1{fill:#444;}.cls-2{fill:#070d49;}</style></defs><title>caseymcclure_logo</title><path class="cls-1" d="M10.25,33.1a3.17,3.17,0,0,1-2.92-1.68,10,10,0,0,1-1-4.93,10.27,10.27,0,0,1,1-5,3.18,3.18,0,0,1,2.93-1.73,4.09,4.09,0,0,1,2,.44l-0.44,1a3.51,3.51,0,0,0-1.46-.37q-2.84,0-2.84,5.66t2.84,5.62a5.1,5.1,0,0,0,1.83-.38v1a3.53,3.53,0,0,1-1,.33A5,5,0,0,1,10.25,33.1Z" transform="translate(-6.35 -14.39)"/><path class="cls-1" d="M19.54,32.86l-0.14-1.8h0a3,3,0,0,1-2.8,2,2.42,2.42,0,0,1-2-1,4.32,4.32,0,0,1-.77-2.69,3.88,3.88,0,0,1,1.1-2.92A4.59,4.59,0,0,1,18,25.32l1.39-.07V24.18a5.75,5.75,0,0,0-.45-2.63,1.57,1.57,0,0,0-1.5-.83,4.23,4.23,0,0,0-2.26.72l-0.49-.89a5.26,5.26,0,0,1,2.81-.83,2.6,2.6,0,0,1,2.29,1,6.06,6.06,0,0,1,.7,3.35v8.77H19.54Zm-2.74-.72a2.07,2.07,0,0,0,1.88-1.19,7,7,0,0,0,.67-3.38V26.23L18,26.3a3.36,3.36,0,0,0-2.31.86,3.14,3.14,0,0,0-.75,2.27,3.4,3.4,0,0,0,.5,2.05A1.61,1.61,0,0,0,16.79,32.14Z" transform="translate(-6.35 -14.39)"/><path class="cls-1" d="M29,29.63a3.6,3.6,0,0,1-.85,2.55,3.21,3.21,0,0,1-2.47.92,4.8,4.8,0,0,1-1.54-.23,3.82,3.82,0,0,1-1-.5V31.06a3.18,3.18,0,0,0,1.16.71,4.27,4.27,0,0,0,1.48.27,2,2,0,0,0,1.57-.65,2.56,2.56,0,0,0,.57-1.75,2.46,2.46,0,0,0-.41-1.44,5.73,5.73,0,0,0-1.56-1.34,10.48,10.48,0,0,1-1.8-1.33,3.74,3.74,0,0,1-.75-1.12,3.7,3.7,0,0,1-.27-1.47,3.06,3.06,0,0,1,.94-2.3,3.29,3.29,0,0,1,2.39-.91,4.4,4.4,0,0,1,2.6.74l-0.58,1a3.65,3.65,0,0,0-2.07-.65,2.16,2.16,0,0,0-1.59.59,2.08,2.08,0,0,0-.59,1.55,2.43,2.43,0,0,0,.4,1.43,6.19,6.19,0,0,0,1.71,1.4,10.6,10.6,0,0,1,1.76,1.35,3.34,3.34,0,0,1,.71,1.12A4,4,0,0,1,29,29.63Z" transform="translate(-6.35 -14.39)"/><path class="cls-1" d="M35.32,33.1a3.5,3.5,0,0,1-3.14-1.74,9.06,9.06,0,0,1-1.1-4.85,10.45,10.45,0,0,1,1-5,3.08,3.08,0,0,1,2.82-1.74,2.84,2.84,0,0,1,2.53,1.53,7.89,7.89,0,0,1,.93,4.11v1h-6.1a9.15,9.15,0,0,0,.8,4.21A2.51,2.51,0,0,0,35.37,32a5,5,0,0,0,2.55-.8v1.09A4.83,4.83,0,0,1,35.32,33.1ZM34.81,20.75q-2.33,0-2.55,4.64h5A7.45,7.45,0,0,0,36.56,22,2,2,0,0,0,34.81,20.75Z" transform="translate(-6.35 -14.39)"/><path class="cls-1" d="M42.88,32.84L39.67,20h1.14l1.95,8q0.34,1.45.67,3.26h0.1q0.22-1.58.63-3.29L46,20h1.14L43.42,35.3a6.78,6.78,0,0,1-1.09,2.55,2.16,2.16,0,0,1-1.79.86,3.1,3.1,0,0,1-1-.2v-1a2.79,2.79,0,0,0,.93.17A1.3,1.3,0,0,0,41.58,37a6.21,6.21,0,0,0,.74-2Z" transform="translate(-6.35 -14.39)"/><path class="cls-1" d="M60,32.86V24.09q0-3.24-1.9-3.24A2,2,0,0,0,56.26,22a7.61,7.61,0,0,0-.58,3.34v7.54H54.57V24.09a5,5,0,0,0-.46-2.44,1.54,1.54,0,0,0-1.44-.8A2,2,0,0,0,50.8,22a9,9,0,0,0-.58,3.78v7.08H49.09V20H50l0.1,1.79h0.11a2.71,2.71,0,0,1,2.62-2,2.39,2.39,0,0,1,1.69.57A3.28,3.28,0,0,1,55.45,22a3.89,3.89,0,0,1,1.14-1.71,2.8,2.8,0,0,1,1.76-.52,2.31,2.31,0,0,1,2.14,1.12,7.23,7.23,0,0,1,.68,3.59v8.42H60Z" transform="translate(-6.35 -14.39)"/><path class="cls-1" d="M68,33.1A3.17,3.17,0,0,1,65,31.42a10,10,0,0,1-1-4.93,10.27,10.27,0,0,1,1-5A3.18,3.18,0,0,1,68,19.73a4.09,4.09,0,0,1,2,.44l-0.44,1a3.51,3.51,0,0,0-1.46-.37q-2.84,0-2.84,5.66t2.84,5.62a5.1,5.1,0,0,0,1.83-.38v1a3.53,3.53,0,0,1-1,.33A5,5,0,0,1,68,33.1Z" transform="translate(-6.35 -14.39)"/><path class="cls-1" d="M75.56,33.1a3.17,3.17,0,0,1-2.92-1.68,10,10,0,0,1-1-4.93,10.27,10.27,0,0,1,1-5,3.18,3.18,0,0,1,2.93-1.73,4.09,4.09,0,0,1,2,.44l-0.44,1a3.51,3.51,0,0,0-1.46-.37q-2.84,0-2.84,5.66t2.84,5.62a5.1,5.1,0,0,0,1.83-.38v1a3.54,3.54,0,0,1-1,.33A5,5,0,0,1,75.56,33.1Z" transform="translate(-6.35 -14.39)"/><path class="cls-1" d="M81,32.86H79.86V14.39H81V32.86Z" transform="translate(-6.35 -14.39)"/><path class="cls-1" d="M85.59,20v8.41A6.37,6.37,0,0,0,86,31.18a1.49,1.49,0,0,0,1.41.88,2.3,2.3,0,0,0,2.14-1.18,8,8,0,0,0,.68-3.82V20h1.12V32.86h-1l-0.14-1.8H90.21a3.46,3.46,0,0,1-1.15,1.51,2.69,2.69,0,0,1-1.6.53A2.51,2.51,0,0,1,85.18,32a6.85,6.85,0,0,1-.72-3.61V20h1.13Z" transform="translate(-6.35 -14.39)"/><path class="cls-1" d="M98.48,19.73a3.69,3.69,0,0,1,1.13.17L99.34,21a2.27,2.27,0,0,0-.88-0.18,1.6,1.6,0,0,0-1.22.67,4.82,4.82,0,0,0-.88,1.87A10.23,10.23,0,0,0,96,26v6.83H94.91V20h0.93L96,22.24H96Q96.94,19.73,98.48,19.73Z" transform="translate(-6.35 -14.39)"/><path class="cls-1" d="M105.28,33.1a3.5,3.5,0,0,1-3.14-1.74,9.06,9.06,0,0,1-1.1-4.85,10.46,10.46,0,0,1,1-5,3.08,3.08,0,0,1,2.82-1.74,2.84,2.84,0,0,1,2.53,1.53,7.88,7.88,0,0,1,.93,4.11v1h-6.1a9.17,9.17,0,0,0,.8,4.21,2.51,2.51,0,0,0,2.34,1.4,5,5,0,0,0,2.55-.8v1.09A4.83,4.83,0,0,1,105.28,33.1Zm-0.51-12.35q-2.33,0-2.55,4.64h5a7.45,7.45,0,0,0-.65-3.38A2,2,0,0,0,104.77,20.75Z" transform="translate(-6.35 -14.39)"/><path class="cls-1" d="M111.08,31.79q0-1.27.93-1.27a0.87,0.87,0,0,1,.65.28,1.42,1.42,0,0,1,.27,1,1.39,1.39,0,0,1-.27,1,0.86,0.86,0,0,1-.65.29Q111.08,33.05,111.08,31.79Z" transform="translate(-6.35 -14.39)"/><path class="cls-2" d="M129.06,32.86V25q0-2.91-1.44-2.91a1.54,1.54,0,0,0-1.5,1,9,9,0,0,0-.45,3.33v6.42H122.5V25q0-2.91-1.46-2.91a1.55,1.55,0,0,0-1.48,1,9,9,0,0,0-.46,3.41v6.35h-3.16V19.64h2.5l0.38,1.7H119a3.2,3.2,0,0,1,1.3-1.48,3.51,3.51,0,0,1,1.76-.47,3.15,3.15,0,0,1,3.23,2.29h0.12a3.38,3.38,0,0,1,3.24-2.29,3.1,3.1,0,0,1,2.67,1.23,6,6,0,0,1,.91,3.61v8.63h-3.18Z" transform="translate(-6.35 -14.39)"/><path class="cls-2" d="M139.75,33.1a4.76,4.76,0,0,1-3.91-1.76,7.73,7.73,0,0,1-1.43-5,8.78,8.78,0,0,1,1.29-5.12,4.16,4.16,0,0,1,3.61-1.84A4.11,4.11,0,0,1,142.72,21,6.94,6.94,0,0,1,144,25.37v1.69h-6.35a4.32,4.32,0,0,0,.72,2.63,2.3,2.3,0,0,0,1.9.86,6.15,6.15,0,0,0,3.16-1v2.6A6.94,6.94,0,0,1,139.75,33.1Zm-0.46-11.28a1.29,1.29,0,0,0-1.12.72,4.84,4.84,0,0,0-.51,2.23h3.21a4.81,4.81,0,0,0-.44-2.2A1.27,1.27,0,0,0,139.29,21.82Z" transform="translate(-6.35 -14.39)"/></svg>